<svg width="33" height="34" viewBox="0 0 33 34" fill="none" xmlns="http://www.w3.org/2000/svg">
<rect x="0.5" y="0.633789" width="32" height="32" rx="16" fill="#1E1E1E" fill-opacity="0.117647"/>
<rect x="0.5" y="0.633789" width="32" height="32" rx="16" stroke="white"/>
<rect x="5" y="5.13379" width="23" height="23" rx="11.5" fill="white"/>
<path d="M23 16.6338C23 20.2236 20.0899 23.1338 16.5 23.1338M23 16.6338C23 13.0439 20.0899 10.1338 16.5 10.1338M23 16.6338H10M16.5 23.1338C12.9101 23.1338 10 20.2236 10 16.6338M16.5 23.1338C18.0017 21.2871 18.8772 19.0108 19 16.6338C18.8772 14.2568 18.0017 11.9804 16.5 10.1338M16.5 23.1338C14.9983 21.2871 14.1228 19.0108 14 16.6338C14.1228 14.2568 14.9983 11.9804 16.5 10.1338M10 16.6338C10 13.0439 12.9101 10.1338 16.5 10.1338" stroke="#1E1E1E" stroke-linecap="round" stroke-linejoin="round"/>
</svg>
