<svg width="200" height="200" viewBox="0 0 200 200" fill="none" xmlns="http://www.w3.org/2000/svg">
<rect width="200" height="200" rx="50" fill="black"/>
<path d="M50.84 121.448C47.7253 121.448 44.9093 120.915 42.392 119.848C39.9173 118.781 37.9547 117.245 36.504 115.24C35.0533 113.235 34.3067 110.867 34.264 108.136H43.864C43.992 109.971 44.632 111.421 45.784 112.488C46.9787 113.555 48.6 114.088 50.648 114.088C52.7387 114.088 54.3813 113.597 55.576 112.616C56.7707 111.592 57.368 110.269 57.368 108.648C57.368 107.325 56.9627 106.237 56.152 105.384C55.3413 104.531 54.3173 103.869 53.08 103.4C51.8853 102.888 50.2213 102.333 48.088 101.736C45.1867 100.883 42.8187 100.051 40.984 99.24C39.192 98.3867 37.6347 97.128 36.312 95.464C35.032 93.7573 34.392 91.496 34.392 88.68C34.392 86.0347 35.0533 83.7307 36.376 81.768C37.6987 79.8053 39.5547 78.312 41.944 77.288C44.3333 76.2213 47.064 75.688 50.136 75.688C54.744 75.688 58.4773 76.8187 61.336 79.08C64.2373 81.2987 65.8373 84.4133 66.136 88.424H56.28C56.1947 86.888 55.5333 85.6293 54.296 84.648C53.1013 83.624 51.5013 83.112 49.496 83.112C47.7467 83.112 46.3387 83.56 45.272 84.456C44.248 85.352 43.736 86.6533 43.736 88.36C43.736 89.5547 44.12 90.5573 44.888 91.368C45.6987 92.136 46.68 92.776 47.832 93.288C49.0267 93.7573 50.6907 94.312 52.824 94.952C55.7253 95.8053 58.0933 96.6587 59.928 97.512C61.7627 98.3653 63.3413 99.6453 64.664 101.352C65.9867 103.059 66.648 105.299 66.648 108.072C66.648 110.461 66.0293 112.68 64.792 114.728C63.5547 116.776 61.7413 118.419 59.352 119.656C56.9627 120.851 54.1253 121.448 50.84 121.448ZM111.472 76.328V121H102.512V101.992H83.376V121H74.416V76.328H83.376V94.696H102.512V76.328H111.472ZM151.395 89.768C150.371 87.8907 148.963 86.4613 147.171 85.48C145.379 84.4987 143.288 84.008 140.899 84.008C138.254 84.008 135.907 84.6053 133.859 85.8C131.811 86.9947 130.211 88.7013 129.059 90.92C127.907 93.1387 127.331 95.6987 127.331 98.6C127.331 101.587 127.907 104.189 129.059 106.408C130.254 108.627 131.896 110.333 133.987 111.528C136.078 112.723 138.51 113.32 141.283 113.32C144.696 113.32 147.491 112.424 149.667 110.632C151.843 108.797 153.272 106.259 153.955 103.016H138.595V96.168H162.787V103.976C162.19 107.091 160.91 109.971 158.947 112.616C156.984 115.261 154.446 117.395 151.331 119.016C148.259 120.595 144.803 121.384 140.963 121.384C136.654 121.384 132.75 120.424 129.251 118.504C125.795 116.541 123.064 113.832 121.059 110.376C119.096 106.92 118.115 102.995 118.115 98.6C118.115 94.2053 119.096 90.28 121.059 86.824C123.064 83.3253 125.795 80.616 129.251 78.696C132.75 76.7333 136.632 75.752 140.899 75.752C145.934 75.752 150.307 76.9893 154.019 79.464C157.731 81.896 160.291 85.3307 161.699 89.768H151.395ZM173.384 121.448C171.763 121.448 170.419 120.957 169.352 119.976C168.328 118.952 167.816 117.693 167.816 116.2C167.816 114.707 168.328 113.469 169.352 112.488C170.419 111.464 171.763 110.952 173.384 110.952C174.963 110.952 176.264 111.464 177.288 112.488C178.312 113.469 178.824 114.707 178.824 116.2C178.824 117.693 178.312 118.952 177.288 119.976C176.264 120.957 174.963 121.448 173.384 121.448Z" fill="white"/>
</svg>
