<svg width="44" height="44" viewBox="0 0 44 44" fill="none" xmlns="http://www.w3.org/2000/svg">
<rect x="0.5" y="0.5" width="43" height="43" rx="21.5" fill="#1E1E1E" fill-opacity="0.117647"/>
<rect x="0.5" y="0.5" width="43" height="43" rx="21.5" stroke="#111111"/>
<rect x="5.5" y="5.5" width="33" height="33" rx="16.5" fill="#111111"/>
<path d="M28.5 22C28.5 25.5899 25.5899 28.5 22 28.5M28.5 22C28.5 18.4101 25.5899 15.5 22 15.5M28.5 22H15.5M22 28.5C18.4101 28.5 15.5 25.5899 15.5 22M22 28.5C23.5017 26.6533 24.3772 24.377 24.5 22C24.3772 19.623 23.5017 17.3467 22 15.5M22 28.5C20.4983 26.6533 19.6228 24.377 19.5 22C19.6228 19.623 20.4983 17.3467 22 15.5M15.5 22C15.5 18.4101 18.4101 15.5 22 15.5" stroke="white" stroke-linecap="round" stroke-linejoin="round"/>
</svg>
